<svg width="25" height="24" fill="none" xmlns="http://www.w3.org/2000/svg"><path d="M24.214 12.225c0-.984-.08-1.701-.252-2.445H12.734v4.438h6.59c-.132 1.102-.85 2.764-2.444 3.88l-.023.148 3.55 2.75.246.025c2.26-2.086 3.561-5.156 3.561-8.796z" fill="#4285F4"/><path d="M12.733 23.918c3.23 0 5.94-1.063 7.92-2.897l-3.774-2.923c-1.01.704-2.365 1.195-4.146 1.195-3.162 0-5.846-2.086-6.803-4.969l-.14.012-3.691 2.857-.049.134c1.967 3.906 6.006 6.59 10.683 6.59z" fill="#34A853"/><path d="M5.93 14.324a7.362 7.362 0 0 1-.398-2.365c0-.824.146-1.621.385-2.365l-.007-.159-3.737-2.903-.123.059a11.97 11.97 0 0 0-1.275 5.368c0 1.927.465 3.747 1.275 5.368l3.88-3.003z" fill="#FBBC05"/><path d="M12.733 4.624c2.246 0 3.76.97 4.625 1.78l3.375-3.295C18.66 1.183 15.963 0 12.733 0 8.056 0 4.018 2.684 2.05 6.59l3.867 3.004c.97-2.884 3.654-4.97 6.816-4.97z" fill="#EB4335"/></svg>